%TF.GenerationSoftware,KiCad,Pcbnew,10.0.1*%
%TF.CreationDate,2026-07-22T23:01:35+03:00*%
%TF.ProjectId,Tamagotchi,54616d61-676f-4746-9368-692e6b696361,rev?*%
%TF.SameCoordinates,Original*%
%TF.FileFunction,Soldermask,Top*%
%TF.FilePolarity,Negative*%
%FSLAX46Y46*%
G04 Gerber Fmt 4.6, Leading zero omitted, Abs format (unit mm)*
G04 Created by KiCad (PCBNEW 10.0.1) date 2026-07-22 23:01:35*
%MOMM*%
%LPD*%
G01*
G04 APERTURE LIST*
%ADD10C,2.700000*%
%ADD11C,1.600000*%
%ADD12C,3.000000*%
%ADD13R,1.700000X1.700000*%
%ADD14C,1.700000*%
%ADD15C,1.524000*%
%ADD16C,2.200000*%
G04 APERTURE END LIST*
D10*
%TO.C,REF\u002A\u002A*%
X104500000Y-90500000D03*
%TD*%
D11*
%TO.C,SW8*%
X173700000Y-53255000D03*
X178500000Y-53255000D03*
X173700000Y-56255000D03*
X178500000Y-56255000D03*
%TD*%
D12*
%TO.C,OLED1*%
X131300000Y-54005000D03*
X131300000Y-87005000D03*
X168700000Y-54005000D03*
X168700000Y-87005000D03*
D13*
X146190000Y-53405000D03*
D14*
X148730000Y-53405000D03*
X151270000Y-53405000D03*
X153810000Y-53405000D03*
%TD*%
D10*
%TO.C,REF\u002A\u002A*%
X195500000Y-54500000D03*
%TD*%
D11*
%TO.C,SW7*%
X121250000Y-53255000D03*
X126050000Y-53255000D03*
X121250000Y-56255000D03*
X126050000Y-56255000D03*
%TD*%
%TO.C,SW1*%
X110400000Y-61755000D03*
X115200000Y-61755000D03*
X110400000Y-64755000D03*
X115200000Y-64755000D03*
%TD*%
D10*
%TO.C,REF\u002A\u002A*%
X104500000Y-54500000D03*
%TD*%
D11*
%TO.C,SW2*%
X104100000Y-68000000D03*
X108900000Y-68000000D03*
X104100000Y-71000000D03*
X108900000Y-71000000D03*
%TD*%
%TO.C,SW3*%
X117200000Y-68000000D03*
X122000000Y-68000000D03*
X117200000Y-71000000D03*
X122000000Y-71000000D03*
%TD*%
%TO.C,SW6*%
X188700000Y-62500000D03*
X193500000Y-62500000D03*
X188700000Y-65500000D03*
X193500000Y-65500000D03*
%TD*%
%TO.C,SW4*%
X110600000Y-74500000D03*
X115400000Y-74500000D03*
X110600000Y-77500000D03*
X115400000Y-77500000D03*
%TD*%
%TO.C,SW5*%
X178600000Y-71000000D03*
X183400000Y-71000000D03*
X178600000Y-74000000D03*
X183400000Y-74000000D03*
%TD*%
D13*
%TO.C,BT1*%
X196000000Y-68000000D03*
D14*
X196000000Y-70540000D03*
%TD*%
D15*
%TO.C,U1*%
X181250000Y-91984000D03*
X181250000Y-89444000D03*
X181250000Y-86904000D03*
X181250000Y-84364000D03*
X181250000Y-81824000D03*
X181250000Y-79284000D03*
X181250000Y-76744000D03*
X196490000Y-76744000D03*
X196490000Y-79284000D03*
X196490000Y-81824000D03*
X196490000Y-84364000D03*
X196490000Y-86904000D03*
X196490000Y-89444000D03*
X196490000Y-91984000D03*
%TD*%
D16*
%TO.C,BUZZER1*%
X121250000Y-85750000D03*
X114750000Y-85750000D03*
%TD*%
M02*
