%TF.GenerationSoftware,KiCad,Pcbnew,10.0.1*%
%TF.CreationDate,2026-07-22T23:01:35+03:00*%
%TF.ProjectId,Tamagotchi,54616d61-676f-4746-9368-692e6b696361,rev?*%
%TF.SameCoordinates,Original*%
%TF.FileFunction,Copper,L2,Bot*%
%TF.FilePolarity,Positive*%
%FSLAX46Y46*%
G04 Gerber Fmt 4.6, Leading zero omitted, Abs format (unit mm)*
G04 Created by KiCad (PCBNEW 10.0.1) date 2026-07-22 23:01:35*
%MOMM*%
%LPD*%
G01*
G04 APERTURE LIST*
G04 Aperture macros list*
%AMRoundRect*
0 Rectangle with rounded corners*
0 $1 Rounding radius*
0 $2 $3 $4 $5 $6 $7 $8 $9 X,Y pos of 4 corners*
0 Add a 4 corners polygon primitive as box body*
4,1,4,$2,$3,$4,$5,$6,$7,$8,$9,$2,$3,0*
0 Add four circle primitives for the rounded corners*
1,1,$1+$1,$2,$3*
1,1,$1+$1,$4,$5*
1,1,$1+$1,$6,$7*
1,1,$1+$1,$8,$9*
0 Add four rect primitives between the rounded corners*
20,1,$1+$1,$2,$3,$4,$5,0*
20,1,$1+$1,$4,$5,$6,$7,0*
20,1,$1+$1,$6,$7,$8,$9,0*
20,1,$1+$1,$8,$9,$2,$3,0*%
G04 Aperture macros list end*
%TA.AperFunction,ComponentPad*%
%ADD10C,1.600000*%
%TD*%
%TA.AperFunction,ComponentPad*%
%ADD11R,1.700000X1.700000*%
%TD*%
%TA.AperFunction,ComponentPad*%
%ADD12C,1.700000*%
%TD*%
%TA.AperFunction,ComponentPad*%
%ADD13C,1.524000*%
%TD*%
%TA.AperFunction,SMDPad,CuDef*%
%ADD14RoundRect,0.152400X1.063600X0.609600X-1.063600X0.609600X-1.063600X-0.609600X1.063600X-0.609600X0*%
%TD*%
%TA.AperFunction,SMDPad,CuDef*%
%ADD15RoundRect,0.152400X-1.063600X-0.609600X1.063600X-0.609600X1.063600X0.609600X-1.063600X0.609600X0*%
%TD*%
%TA.AperFunction,SMDPad,CuDef*%
%ADD16C,1.700000*%
%TD*%
%TA.AperFunction,SMDPad,CuDef*%
%ADD17RoundRect,0.275000X0.975000X0.275000X-0.975000X0.275000X-0.975000X-0.275000X0.975000X-0.275000X0*%
%TD*%
%TA.AperFunction,ComponentPad*%
%ADD18C,2.200000*%
%TD*%
%TA.AperFunction,ViaPad*%
%ADD19C,0.600000*%
%TD*%
%TA.AperFunction,Conductor*%
%ADD20C,0.200000*%
%TD*%
G04 APERTURE END LIST*
D10*
%TO.P,SW8,1,1_1*%
%TO.N,Net-(U1-GPIO6_MTCK)*%
X173700000Y-53255000D03*
X178500000Y-53255000D03*
%TO.P,SW8,2,2_2*%
%TO.N,GND*%
X173700000Y-56255000D03*
X178500000Y-56255000D03*
%TD*%
D11*
%TO.P,OLED1,1,GND_1*%
%TO.N,GND*%
X146190000Y-53405000D03*
D12*
%TO.P,OLED1,2,VCC_2*%
%TO.N,+3V3*%
X148730000Y-53405000D03*
%TO.P,OLED1,3,SCL_3*%
%TO.N,Net-(OLED1-SCL)*%
X151270000Y-53405000D03*
%TO.P,OLED1,4,SDA_4*%
%TO.N,Net-(OLED1-SDA)*%
X153810000Y-53405000D03*
%TD*%
D10*
%TO.P,SW7,1,1_1*%
%TO.N,Net-(U1-GPIO4_MTMS)*%
X121250000Y-53255000D03*
X126050000Y-53255000D03*
%TO.P,SW7,2,2_2*%
%TO.N,GND*%
X121250000Y-56255000D03*
X126050000Y-56255000D03*
%TD*%
%TO.P,SW1,1,1_1*%
%TO.N,GND*%
X110400000Y-61755000D03*
X115200000Y-61755000D03*
%TO.P,SW1,2,2_2*%
%TO.N,Net-(U1-GPIO2_A0_D0)*%
X110400000Y-64755000D03*
X115200000Y-64755000D03*
%TD*%
%TO.P,SW2,1,1_1*%
%TO.N,GND*%
X104100000Y-68000000D03*
X108900000Y-68000000D03*
%TO.P,SW2,2,2_2*%
%TO.N,Net-(U1-GPIO3_A1_D1)*%
X104100000Y-71000000D03*
X108900000Y-71000000D03*
%TD*%
%TO.P,SW3,1,1_1*%
%TO.N,GND*%
X117200000Y-68000000D03*
X122000000Y-68000000D03*
%TO.P,SW3,2,2_2*%
%TO.N,Net-(U1-GPIO4_A2_D2)*%
X117200000Y-71000000D03*
X122000000Y-71000000D03*
%TD*%
%TO.P,SW6,1,1_1*%
%TO.N,Net-(U1-GPIO8_D8_SCK)*%
X188700000Y-62500000D03*
X193500000Y-62500000D03*
%TO.P,SW6,2,2_2*%
%TO.N,GND*%
X188700000Y-65500000D03*
X193500000Y-65500000D03*
%TD*%
%TO.P,SW4,1,1_1*%
%TO.N,GND*%
X110600000Y-74500000D03*
X115400000Y-74500000D03*
%TO.P,SW4,2,2_2*%
%TO.N,Net-(U1-GPIO5_A3_D3)*%
X110600000Y-77500000D03*
X115400000Y-77500000D03*
%TD*%
%TO.P,SW5,1,1_1*%
%TO.N,Net-(U1-GPIO9_D9_MISO)*%
X178600000Y-71000000D03*
X183400000Y-71000000D03*
%TO.P,SW5,2,2_2*%
%TO.N,GND*%
X178600000Y-74000000D03*
X183400000Y-74000000D03*
%TD*%
D11*
%TO.P,BT1,1,+_1*%
%TO.N,+BATT*%
X196000000Y-68000000D03*
D12*
%TO.P,BT1,2,-_2*%
%TO.N,GND*%
X196000000Y-70540000D03*
%TD*%
D13*
%TO.P,U1,1,GPIO2_A0_D0_1*%
%TO.N,Net-(U1-GPIO2_A0_D0)*%
X181250000Y-91984000D03*
D14*
X180415000Y-91984000D03*
D13*
%TO.P,U1,2,GPIO3_A1_D1_2*%
%TO.N,Net-(U1-GPIO3_A1_D1)*%
X181250000Y-89444000D03*
D14*
X180415000Y-89444000D03*
D13*
%TO.P,U1,3,GPIO4_A2_D2_3*%
%TO.N,Net-(U1-GPIO4_A2_D2)*%
X181250000Y-86904000D03*
D14*
X180415000Y-86904000D03*
D13*
%TO.P,U1,4,GPIO5_A3_D3_4*%
%TO.N,Net-(U1-GPIO5_A3_D3)*%
X181250000Y-84364000D03*
D14*
X180415000Y-84364000D03*
D13*
%TO.P,U1,5,GPIO6_D4_SDA_5*%
%TO.N,Net-(OLED1-SDA)*%
X181250000Y-81824000D03*
D14*
X180415000Y-81824000D03*
D13*
%TO.P,U1,6,GPIO7_D5_SCL_6*%
%TO.N,Net-(OLED1-SCL)*%
X181250000Y-79284000D03*
D14*
X180415000Y-79284000D03*
D13*
%TO.P,U1,7,GPIO21_D6_TX_7*%
%TO.N,unconnected-(U1-GPIO21_D6_TX-Pad7)*%
X181250000Y-76744000D03*
D14*
%TO.N,unconnected-(U1-GPIO21_D6_TX-Pad7)_1*%
X180415000Y-76744000D03*
D15*
%TO.P,U1,8,GPIO20_D7_RX_8*%
%TO.N,unconnected-(U1-GPIO20_D7_RX-Pad8)*%
X197325000Y-76744000D03*
D13*
%TO.N,unconnected-(U1-GPIO20_D7_RX-Pad8)_1*%
X196490000Y-76744000D03*
D15*
%TO.P,U1,9,GPIO8_D8_SCK_9*%
%TO.N,Net-(U1-GPIO8_D8_SCK)*%
X197325000Y-79284000D03*
D13*
X196490000Y-79284000D03*
D15*
%TO.P,U1,10,GPIO9_D9_MISO_10*%
%TO.N,Net-(U1-GPIO9_D9_MISO)*%
X197325000Y-81824000D03*
D13*
X196490000Y-81824000D03*
D15*
%TO.P,U1,11,GPIO10_D10_MOSI_11*%
%TO.N,Net-(BUZZER1-+)*%
X197325000Y-84364000D03*
D13*
X196490000Y-84364000D03*
D15*
%TO.P,U1,12,3V3_12*%
%TO.N,+3V3*%
X197325000Y-86904000D03*
D13*
X196490000Y-86904000D03*
D15*
%TO.P,U1,13,GND_13*%
%TO.N,GND*%
X197325000Y-89444000D03*
D13*
X196490000Y-89444000D03*
D15*
%TO.P,U1,14,VBUS_14*%
%TO.N,+5V*%
X197325000Y-91984000D03*
D13*
X196490000Y-91984000D03*
D16*
%TO.P,U1,24,GPIO5_MTDI_24*%
%TO.N,unconnected-(U1-GPIO5_MTDI-Pad24)*%
X187600000Y-87920000D03*
%TO.P,U1,25,GPIO7_MTDO_25*%
%TO.N,unconnected-(U1-GPIO7_MTDO-Pad25)*%
X187600000Y-90460000D03*
%TO.P,U1,26,CHIP_EN_26*%
%TO.N,unconnected-(U1-CHIP_EN-Pad26)*%
X187600000Y-93000000D03*
%TO.P,U1,27,GND_27*%
%TO.N,unconnected-(U1-GND-Pad27)*%
X190140000Y-87920000D03*
%TO.P,U1,28,GPIO4_MTMS_28*%
%TO.N,Net-(U1-GPIO4_MTMS)*%
X190140000Y-90460000D03*
%TO.P,U1,29,GPIO6_MTCK_29*%
%TO.N,Net-(U1-GPIO6_MTCK)*%
X190140000Y-93000000D03*
D17*
%TO.P,U1,32,BAT_32*%
%TO.N,+BATT*%
X184425000Y-84750000D03*
%TO.P,U1,33,GND_33*%
%TO.N,GND*%
X184425000Y-86655000D03*
%TD*%
D18*
%TO.P,BUZZER1,1,+_1*%
%TO.N,Net-(BUZZER1-+)*%
X121250000Y-85750000D03*
%TO.P,BUZZER1,2,-_2*%
%TO.N,GND*%
X114750000Y-85750000D03*
%TD*%
D19*
%TO.N,Net-(U1-GPIO5_A3_D3)*%
X177500000Y-85100000D03*
X118600000Y-77500000D03*
%TO.N,Net-(U1-GPIO9_D9_MISO)*%
X185000000Y-71000000D03*
X186500000Y-75500000D03*
%TO.N,GND*%
X183500000Y-77500000D03*
%TO.N,Net-(U1-GPIO6_MTCK)*%
X181000000Y-55000000D03*
%TD*%
%TO.N,Net-(U1-GPIO3_A1_D1)*%
D20*
X141944000Y-89444000D02*
X181250000Y-89444000D01*
X110000000Y-72100000D02*
X124600000Y-72100000D01*
X108900000Y-71000000D02*
X110000000Y-72100000D01*
X124600000Y-72100000D02*
X141944000Y-89444000D01*
%TO.N,Net-(U1-GPIO5_A3_D3)*%
X115400000Y-77500000D02*
X118600000Y-77500000D01*
X177500000Y-85100000D02*
X178236000Y-84364000D01*
X178236000Y-84364000D02*
X181250000Y-84364000D01*
%TO.N,Net-(U1-GPIO9_D9_MISO)*%
X185000000Y-71000000D02*
X185000000Y-74000000D01*
X185000000Y-74000000D02*
X186500000Y-75500000D01*
%TO.N,GND*%
X182875000Y-86355000D02*
X183175000Y-86655000D01*
X184425000Y-86655000D02*
X184425000Y-88925000D01*
X183500000Y-77500000D02*
X182875000Y-78125000D01*
X188316346Y-91850000D02*
X188990000Y-92523654D01*
X191784000Y-94150000D02*
X196490000Y-89444000D01*
X189663654Y-94150000D02*
X191784000Y-94150000D01*
X183175000Y-86655000D02*
X184425000Y-86655000D01*
X184425000Y-88925000D02*
X187350000Y-91850000D01*
X188990000Y-92523654D02*
X188990000Y-93476346D01*
X187350000Y-91850000D02*
X188316346Y-91850000D01*
X182875000Y-78125000D02*
X182875000Y-86355000D01*
X188990000Y-93476346D02*
X189663654Y-94150000D01*
%TO.N,Net-(U1-GPIO6_MTCK)*%
X181000000Y-55000000D02*
X187270000Y-61270000D01*
X187270000Y-85963654D02*
X188750000Y-87443654D01*
X188750000Y-87443654D02*
X188750000Y-91610000D01*
X187270000Y-61270000D02*
X187270000Y-85963654D01*
X188750000Y-91610000D02*
X190140000Y-93000000D01*
%TD*%
M02*
