%TF.GenerationSoftware,KiCad,Pcbnew,10.0.1*%
%TF.CreationDate,2026-07-22T23:01:35+03:00*%
%TF.ProjectId,Tamagotchi,54616d61-676f-4746-9368-692e6b696361,rev?*%
%TF.SameCoordinates,Original*%
%TF.FileFunction,Copper,L1,Top*%
%TF.FilePolarity,Positive*%
%FSLAX46Y46*%
G04 Gerber Fmt 4.6, Leading zero omitted, Abs format (unit mm)*
G04 Created by KiCad (PCBNEW 10.0.1) date 2026-07-22 23:01:35*
%MOMM*%
%LPD*%
G01*
G04 APERTURE LIST*
%TA.AperFunction,ComponentPad*%
%ADD10C,1.600000*%
%TD*%
%TA.AperFunction,ComponentPad*%
%ADD11R,1.700000X1.700000*%
%TD*%
%TA.AperFunction,ComponentPad*%
%ADD12C,1.700000*%
%TD*%
%TA.AperFunction,ComponentPad*%
%ADD13C,1.524000*%
%TD*%
%TA.AperFunction,ComponentPad*%
%ADD14C,2.200000*%
%TD*%
%TA.AperFunction,ViaPad*%
%ADD15C,0.600000*%
%TD*%
%TA.AperFunction,Conductor*%
%ADD16C,0.200000*%
%TD*%
G04 APERTURE END LIST*
D10*
%TO.P,SW8,1,1_1*%
%TO.N,Net-(U1-GPIO6_MTCK)*%
X173700000Y-53255000D03*
X178500000Y-53255000D03*
%TO.P,SW8,2,2_2*%
%TO.N,GND*%
X173700000Y-56255000D03*
X178500000Y-56255000D03*
%TD*%
D11*
%TO.P,OLED1,1,GND_1*%
%TO.N,GND*%
X146190000Y-53405000D03*
D12*
%TO.P,OLED1,2,VCC_2*%
%TO.N,+3V3*%
X148730000Y-53405000D03*
%TO.P,OLED1,3,SCL_3*%
%TO.N,Net-(OLED1-SCL)*%
X151270000Y-53405000D03*
%TO.P,OLED1,4,SDA_4*%
%TO.N,Net-(OLED1-SDA)*%
X153810000Y-53405000D03*
%TD*%
D10*
%TO.P,SW7,1,1_1*%
%TO.N,Net-(U1-GPIO4_MTMS)*%
X121250000Y-53255000D03*
X126050000Y-53255000D03*
%TO.P,SW7,2,2_2*%
%TO.N,GND*%
X121250000Y-56255000D03*
X126050000Y-56255000D03*
%TD*%
%TO.P,SW1,1,1_1*%
%TO.N,GND*%
X110400000Y-61755000D03*
X115200000Y-61755000D03*
%TO.P,SW1,2,2_2*%
%TO.N,Net-(U1-GPIO2_A0_D0)*%
X110400000Y-64755000D03*
X115200000Y-64755000D03*
%TD*%
%TO.P,SW2,1,1_1*%
%TO.N,GND*%
X104100000Y-68000000D03*
X108900000Y-68000000D03*
%TO.P,SW2,2,2_2*%
%TO.N,Net-(U1-GPIO3_A1_D1)*%
X104100000Y-71000000D03*
X108900000Y-71000000D03*
%TD*%
%TO.P,SW3,1,1_1*%
%TO.N,GND*%
X117200000Y-68000000D03*
X122000000Y-68000000D03*
%TO.P,SW3,2,2_2*%
%TO.N,Net-(U1-GPIO4_A2_D2)*%
X117200000Y-71000000D03*
X122000000Y-71000000D03*
%TD*%
%TO.P,SW6,1,1_1*%
%TO.N,Net-(U1-GPIO8_D8_SCK)*%
X188700000Y-62500000D03*
X193500000Y-62500000D03*
%TO.P,SW6,2,2_2*%
%TO.N,GND*%
X188700000Y-65500000D03*
X193500000Y-65500000D03*
%TD*%
%TO.P,SW4,1,1_1*%
%TO.N,GND*%
X110600000Y-74500000D03*
X115400000Y-74500000D03*
%TO.P,SW4,2,2_2*%
%TO.N,Net-(U1-GPIO5_A3_D3)*%
X110600000Y-77500000D03*
X115400000Y-77500000D03*
%TD*%
%TO.P,SW5,1,1_1*%
%TO.N,Net-(U1-GPIO9_D9_MISO)*%
X178600000Y-71000000D03*
X183400000Y-71000000D03*
%TO.P,SW5,2,2_2*%
%TO.N,GND*%
X178600000Y-74000000D03*
X183400000Y-74000000D03*
%TD*%
D11*
%TO.P,BT1,1,+_1*%
%TO.N,+BATT*%
X196000000Y-68000000D03*
D12*
%TO.P,BT1,2,-_2*%
%TO.N,GND*%
X196000000Y-70540000D03*
%TD*%
D13*
%TO.P,U1,1,GPIO2_A0_D0_1*%
%TO.N,Net-(U1-GPIO2_A0_D0)*%
X181250000Y-91984000D03*
%TO.P,U1,2,GPIO3_A1_D1_2*%
%TO.N,Net-(U1-GPIO3_A1_D1)*%
X181250000Y-89444000D03*
%TO.P,U1,3,GPIO4_A2_D2_3*%
%TO.N,Net-(U1-GPIO4_A2_D2)*%
X181250000Y-86904000D03*
%TO.P,U1,4,GPIO5_A3_D3_4*%
%TO.N,Net-(U1-GPIO5_A3_D3)*%
X181250000Y-84364000D03*
%TO.P,U1,5,GPIO6_D4_SDA_5*%
%TO.N,Net-(OLED1-SDA)*%
X181250000Y-81824000D03*
%TO.P,U1,6,GPIO7_D5_SCL_6*%
%TO.N,Net-(OLED1-SCL)*%
X181250000Y-79284000D03*
%TO.P,U1,7,GPIO21_D6_TX_7*%
%TO.N,unconnected-(U1-GPIO21_D6_TX-Pad7)*%
X181250000Y-76744000D03*
%TO.P,U1,8,GPIO20_D7_RX_8*%
%TO.N,unconnected-(U1-GPIO20_D7_RX-Pad8)_1*%
X196490000Y-76744000D03*
%TO.P,U1,9,GPIO8_D8_SCK_9*%
%TO.N,Net-(U1-GPIO8_D8_SCK)*%
X196490000Y-79284000D03*
%TO.P,U1,10,GPIO9_D9_MISO_10*%
%TO.N,Net-(U1-GPIO9_D9_MISO)*%
X196490000Y-81824000D03*
%TO.P,U1,11,GPIO10_D10_MOSI_11*%
%TO.N,Net-(BUZZER1-+)*%
X196490000Y-84364000D03*
%TO.P,U1,12,3V3_12*%
%TO.N,+3V3*%
X196490000Y-86904000D03*
%TO.P,U1,13,GND_13*%
%TO.N,GND*%
X196490000Y-89444000D03*
%TO.P,U1,14,VBUS_14*%
%TO.N,+5V*%
X196490000Y-91984000D03*
%TD*%
D14*
%TO.P,BUZZER1,1,+_1*%
%TO.N,Net-(BUZZER1-+)*%
X121250000Y-85750000D03*
%TO.P,BUZZER1,2,-_2*%
%TO.N,GND*%
X114750000Y-85750000D03*
%TD*%
D15*
%TO.N,Net-(U1-GPIO5_A3_D3)*%
X177500000Y-85100000D03*
X118600000Y-77500000D03*
%TO.N,Net-(U1-GPIO9_D9_MISO)*%
X185000000Y-71000000D03*
X186500000Y-75500000D03*
%TO.N,GND*%
X183500000Y-77500000D03*
%TO.N,Net-(U1-GPIO6_MTCK)*%
X181000000Y-55000000D03*
%TD*%
%TO.N,Net-(U1-GPIO2_A0_D0)*%
D16*
X110400000Y-64755000D02*
X115200000Y-64755000D01*
%TO.N,Net-(U1-GPIO3_A1_D1)*%
X104100000Y-71000000D02*
X108900000Y-71000000D01*
%TO.N,Net-(U1-GPIO4_A2_D2)*%
X178846000Y-84500000D02*
X181250000Y-86904000D01*
X117200000Y-71000000D02*
X122000000Y-71000000D01*
X135500000Y-84500000D02*
X122000000Y-71000000D01*
X135500000Y-84500000D02*
X178846000Y-84500000D01*
%TO.N,Net-(U1-GPIO5_A3_D3)*%
X126200000Y-85100000D02*
X177500000Y-85100000D01*
X110600000Y-77500000D02*
X115400000Y-77500000D01*
X118600000Y-77500000D02*
X126200000Y-85100000D01*
%TO.N,Net-(U1-GPIO8_D8_SCK)*%
X193500000Y-62500000D02*
X197552000Y-66552000D01*
X197552000Y-66552000D02*
X197552000Y-78222000D01*
X197552000Y-78222000D02*
X196490000Y-79284000D01*
X188700000Y-62500000D02*
X193500000Y-62500000D01*
%TO.N,Net-(U1-GPIO9_D9_MISO)*%
X192824000Y-81824000D02*
X196490000Y-81824000D01*
X186500000Y-75500000D02*
X192824000Y-81824000D01*
X178600000Y-71000000D02*
X183400000Y-71000000D01*
X183400000Y-71000000D02*
X185000000Y-71000000D01*
%TO.N,GND*%
X120700000Y-56255000D02*
X121250000Y-56255000D01*
X178600000Y-74000000D02*
X183400000Y-74000000D01*
X126050000Y-56255000D02*
X143340000Y-56255000D01*
X188700000Y-65500000D02*
X188700000Y-68700000D01*
X121250000Y-56255000D02*
X126050000Y-56255000D01*
X146190000Y-53405000D02*
X149040000Y-56255000D01*
X173700000Y-56255000D02*
X178500000Y-56255000D01*
X117200000Y-68000000D02*
X122000000Y-68000000D01*
X118000000Y-77100000D02*
X118000000Y-82500000D01*
X115200000Y-61755000D02*
X117200000Y-63755000D01*
X188700000Y-68700000D02*
X183400000Y-74000000D01*
X117200000Y-63755000D02*
X117200000Y-68000000D01*
X149040000Y-56255000D02*
X173700000Y-56255000D01*
X110600000Y-74500000D02*
X110600000Y-69700000D01*
X110600000Y-69700000D02*
X108900000Y-68000000D01*
X104100000Y-68000000D02*
X108900000Y-68000000D01*
X115200000Y-61755000D02*
X120700000Y-56255000D01*
X108900000Y-68000000D02*
X108900000Y-63255000D01*
X110600000Y-74500000D02*
X115400000Y-74500000D01*
X108900000Y-63255000D02*
X110400000Y-61755000D01*
X143340000Y-56255000D02*
X146190000Y-53405000D01*
X188700000Y-65500000D02*
X193500000Y-65500000D01*
X178500000Y-56255000D02*
X179455000Y-56255000D01*
X110400000Y-61755000D02*
X115200000Y-61755000D01*
X193500000Y-65500000D02*
X193500000Y-68040000D01*
X183400000Y-74000000D02*
X183400000Y-77400000D01*
X179455000Y-56255000D02*
X188700000Y-65500000D01*
X118000000Y-82500000D02*
X114750000Y-85750000D01*
X183400000Y-77400000D02*
X183500000Y-77500000D01*
X193500000Y-68040000D02*
X196000000Y-70540000D01*
X115400000Y-74500000D02*
X118000000Y-77100000D01*
%TO.N,Net-(U1-GPIO4_MTMS)*%
X126050000Y-53255000D02*
X126755000Y-53255000D01*
X121250000Y-53255000D02*
X126050000Y-53255000D01*
%TO.N,Net-(U1-GPIO6_MTCK)*%
X178500000Y-53255000D02*
X179255000Y-53255000D01*
X179255000Y-53255000D02*
X181000000Y-55000000D01*
X173700000Y-53255000D02*
X178500000Y-53255000D01*
%TD*%
M02*
