M48
; DRILL file KiCad 10.0.1 date 2026-07-22T23:01:32
; FORMAT={-:-/ absolute / metric / decimal}
; #@! TF.CreationDate,2026-07-22T23:01:32+03:00
; #@! TF.GenerationSoftware,Kicad,Pcbnew,10.0.1
; #@! TF.FileFunction,Plated,1,2,PTH
FMAT,2
METRIC
; #@! TA.AperFunction,Plated,PTH,ViaDrill
T1C0.300
; #@! TA.AperFunction,Plated,PTH,ComponentDrill
T2C0.889
; #@! TA.AperFunction,Plated,PTH,ComponentDrill
T3C1.000
; #@! TA.AperFunction,Plated,PTH,ComponentDrill
T4C1.000
; #@! TA.AperFunction,Plated,PTH,ComponentDrill
T5C1.400
%
G90
G05
T1
X118.6Y-77.5
X177.5Y-85.1
X181.0Y-55.0
X183.5Y-77.5
X185.0Y-71.0
X186.5Y-75.5
T2
X181.25Y-76.744
X181.25Y-79.284
X181.25Y-81.824
X181.25Y-84.364
X181.25Y-86.904
X181.25Y-89.444
X181.25Y-91.984
X196.49Y-76.744
X196.49Y-79.284
X196.49Y-81.824
X196.49Y-84.364
X196.49Y-86.904
X196.49Y-89.444
X196.49Y-91.984
T3
X104.1Y-68.0
X104.1Y-71.0
X108.9Y-68.0
X108.9Y-71.0
X110.4Y-61.755
X110.4Y-64.755
X110.6Y-74.5
X110.6Y-77.5
X115.2Y-61.755
X115.2Y-64.755
X115.4Y-74.5
X115.4Y-77.5
X117.2Y-68.0
X117.2Y-71.0
X121.25Y-53.255
X121.25Y-56.255
X122.0Y-68.0
X122.0Y-71.0
X126.05Y-53.255
X126.05Y-56.255
X146.19Y-53.405
X148.73Y-53.405
X151.27Y-53.405
X153.81Y-53.405
X173.7Y-53.255
X173.7Y-56.255
X178.5Y-53.255
X178.5Y-56.255
X178.6Y-71.0
X178.6Y-74.0
X183.4Y-71.0
X183.4Y-74.0
X188.7Y-62.5
X188.7Y-65.5
X193.5Y-62.5
X193.5Y-65.5
T4
X196.0Y-68.0
X196.0Y-70.54
T5
X114.75Y-85.75
X121.25Y-85.75
M30
